<?xml version="1.0" encoding="UTF-8" standalone="no"?>
<!-- Created with Inkscape (http://www.inkscape.org/) -->

<svg
   width="89.085808mm"
   height="30.622454mm"
   viewBox="0 0 89.085808 30.622454"
   version="1.1"
   id="svg1"
   xml:space="preserve"
   inkscape:version="1.4.2 (f4327f4, 2025-05-13)"
   sodipodi:docname="osgi.svg"
   xmlns:inkscape="http://www.inkscape.org/namespaces/inkscape"
   xmlns:sodipodi="http://sodipodi.sourceforge.net/DTD/sodipodi-0.dtd"
   xmlns="http://www.w3.org/2000/svg"
   xmlns:svg="http://www.w3.org/2000/svg"><sodipodi:namedview
     id="namedview1"
     pagecolor="#505050"
     bordercolor="#eeeeee"
     borderopacity="1"
     inkscape:showpageshadow="0"
     inkscape:pageopacity="0"
     inkscape:pagecheckerboard="0"
     inkscape:deskcolor="#505050"
     inkscape:document-units="mm"
     inkscape:zoom="0.51981271"
     inkscape:cx="710.83294"
     inkscape:cy="738.72761"
     inkscape:window-width="1718"
     inkscape:window-height="1360"
     inkscape:window-x="1713"
     inkscape:window-y="0"
     inkscape:window-maximized="0"
     inkscape:current-layer="layer1"><inkscape:page
       x="0"
       y="0"
       width="89.085808"
       height="30.622454"
       id="page2"
       margin="0"
       bleed="0" /></sodipodi:namedview><defs
     id="defs1" /><g
     inkscape:label="Layer 1"
     inkscape:groupmode="layer"
     id="layer1"
     transform="translate(-74.848534,-189.9238)"><path
       style="fill:#000000"
       d="m 83.759432,220.46372 c -2.657462,-0.14108 -5.078024,-0.66379 -6.513912,-1.40665 -2.684402,-1.38878 -3.087981,-3.86349 -1.341944,-8.22869 0.461385,-1.1535 1.766913,-3.70803 2.625375,-5.13709 l 0.644623,-1.07309 0.703382,-0.0586 c 0.979399,-0.0816 0.98263,-0.0793 0.78274,0.56299 -0.433689,1.39345 -0.556924,3.48168 -0.294054,4.9828 0.275211,1.57158 0.96833,3.22461 1.898306,4.52729 0.962094,1.34766 2.533231,2.70122 3.980487,3.42924 0.600875,0.30226 2.414003,0.9336 2.686719,0.93553 0.09701,6.9e-4 0.200269,0.0251 0.229456,0.0543 0.06427,0.0643 -0.118738,0.42858 -0.515376,1.02596 l -0.295443,0.44497 -2.04118,-0.016 c -1.122649,-0.009 -2.269779,-0.0281 -2.549179,-0.043 z m 10.009898,-0.54309 c -0.21365,-0.34407 -0.40063,-0.67568 -0.41551,-0.7369 -0.01839,-0.0757 0.221766,-0.17667 0.749931,-0.31542 4.124282,-1.08345 7.211329,-4.40771 8.041579,-8.65951 0.27786,-1.42291 0.1602,-3.64109 -0.26761,-5.04538 -0.0696,-0.22859 -0.12662,-0.46672 -0.12662,-0.52917 0,-0.12764 0.28209,-0.14341 1.07775,-0.0602 l 0.50993,0.0533 0.59324,0.98387 c 1.76037,2.91955 2.96409,5.55794 3.44858,7.5588 0.70568,2.91438 0.078,4.74832 -1.9942,5.82638 -1.95406,1.01662 -4.28471,1.42189 -8.638458,1.50214 l -2.590156,0.0477 z m -5.270184,-1.80733 c -0.373424,-0.1115 -0.868724,-0.27777 -1.100667,-0.36949 l -0.421714,-0.16676 0.03001,-0.96977 c 0.07305,-2.36106 -0.551709,-4.42136 -1.872665,-6.17553 -0.884723,-1.17487 -2.166876,-2.1968 -3.502297,-2.79149 l -0.636002,-0.28322 0.05433,-0.46566 c 0.05896,-0.50532 0.231023,-1.25377 0.430605,-1.87306 l 0.126134,-0.39138 0.652943,0.11991 c 3.984064,0.73166 7.015326,3.61057 7.91359,7.51583 0.138213,0.60089 0.176427,1.05128 0.176427,2.07936 0,1.39903 -0.134364,2.22438 -0.551339,3.38667 -0.237337,0.66156 -0.304847,0.68154 -1.299355,0.38459 z m 4.31478,-0.10942 c -0.257089,-0.60865 -0.545198,-1.8476 -0.639844,-2.75152 -0.203227,-1.94093 0.266554,-4.08627 1.271652,-5.80723 1.4332,-2.45398 3.886376,-4.14489 6.815956,-4.69805 l 0.65387,-0.12346 0.0853,0.22371 c 0.13988,0.36704 0.40307,1.53479 0.46067,2.04397 l 0.0537,0.47497 -0.58056,0.24645 c -0.84964,0.36067 -2.013581,1.16939 -2.747405,1.90892 -1.457417,1.46875 -2.343213,3.30034 -2.617877,5.41307 -0.09659,0.74298 -0.06754,2.17806 0.0503,2.48517 0.05225,0.13616 -0.77458,0.48365 -1.777076,0.74684 -0.817447,0.21462 -0.872955,0.20583 -1.028682,-0.16284 z m 21.342184,-3.29434 c -2.64618,-0.56695 -4.41556,-2.8357 -5.00782,-6.42116 -0.21451,-1.2986 -0.21451,-4.0354 0,-5.334 0.49374,-2.98903 1.76376,-5.01699 3.73648,-5.96641 0.90058,-0.43342 1.67767,-0.5954 2.85304,-0.59467 3.59598,0.002 5.842,2.24977 6.55663,6.56108 0.20937,1.26308 0.21004,4.11528 0.001,5.334 -0.62076,3.62351 -2.25493,5.75835 -4.89175,6.39047 -0.86068,0.20633 -2.36187,0.22051 -3.24783,0.0307 z m 2.52658,-2.45081 c 0.56932,-0.19399 1.23869,-0.83779 1.5693,-1.50936 0.62824,-1.27612 0.91448,-3.32335 0.82946,-5.93233 -0.0962,-2.95399 -0.61179,-4.71357 -1.65055,-5.63346 -0.46619,-0.41285 -0.99179,-0.58954 -1.75369,-0.58954 -1.65499,0 -2.66194,1.26476 -3.13449,3.937 -0.18692,1.05702 -0.25384,3.55969 -0.13194,4.93422 0.23324,2.63 1.06325,4.34526 2.31757,4.7894 0.48229,0.17078 1.4591,0.17281 1.95434,0.004 z m 10.59541,2.50208 c -0.99113,-0.15205 -2.49767,-0.71247 -2.49767,-0.9291 0,-0.0738 0.5634,-1.74354 0.71961,-2.13269 0.0528,-0.13159 0.10434,-0.12214 0.54398,0.0998 0.7464,0.37679 1.46245,0.53617 2.41941,0.53854 1.40004,0.003 2.175,-0.41207 2.67944,-1.43673 0.24021,-0.48794 0.27429,-0.64191 0.27572,-1.24582 0.003,-1.38953 -0.52756,-2.00702 -2.57336,-2.99336 -1.99958,-0.96406 -2.83798,-1.65063 -3.38957,-2.77572 -0.41325,-0.84293 -0.53351,-1.47686 -0.48184,-2.54 0.11781,-2.42385 1.54547,-4.19982 3.84994,-4.78921 0.85841,-0.21954 2.32107,-0.21975 3.38364,-4.7e-4 0.84033,0.17341 2.0921,0.71518 2.03377,0.88021 -0.0193,0.0547 -0.17975,0.50904 -0.35647,1.00964 -0.17672,0.50059 -0.35125,0.91016 -0.38784,0.91016 -0.0366,0 -0.25062,-0.0919 -0.47564,-0.20423 -0.72674,-0.36279 -1.36794,-0.50961 -2.22945,-0.51048 -0.63501,-6.5e-4 -0.88455,0.036 -1.18534,0.17422 -0.56592,0.26 -0.89504,0.57665 -1.15984,1.11588 -0.20643,0.42036 -0.23716,0.58169 -0.23716,1.24495 0,0.62336 0.0339,0.8254 0.18646,1.11052 0.43296,0.80931 0.94856,1.19867 2.53562,1.91476 1.29609,0.58481 2.06226,1.09289 2.74903,1.823 0.87653,0.93185 1.25759,1.9388 1.25717,3.32205 -7.7e-4,2.53268 -1.42328,4.48084 -3.84961,5.27214 -0.401,0.13077 -0.80227,0.17138 -1.905,0.19278 -0.76835,0.0149 -1.6256,-0.008 -1.905,-0.0508 z m 16.29833,-0.0379 c -3.09672,-0.62613 -5.09681,-2.77186 -5.84113,-6.26647 -0.26048,-1.22294 -0.32496,-3.55723 -0.13445,-4.86701 0.17236,-1.18498 0.64181,-2.61505 1.15428,-3.51622 0.75976,-1.33601 2.24727,-2.63181 3.63597,-3.16735 1.08275,-0.41755 1.96038,-0.53851 3.556,-0.49011 1.12421,0.0341 1.55553,0.084 2.20886,0.25536 0.83871,0.22002 1.68581,0.59211 1.68581,0.74049 0,0.0465 -0.21154,0.50643 -0.47007,1.02194 -0.38703,0.7717 -0.49547,0.92606 -0.61384,0.87372 -1.47793,-0.65357 -3.49186,-0.77216 -4.80018,-0.28265 -1.65188,0.61804 -2.65118,2.17987 -3.00017,4.68901 -0.13066,0.93947 -0.11169,3.16942 0.0346,4.07168 0.41098,2.53389 1.54427,4.17556 3.21378,4.65547 0.56728,0.16307 1.87361,0.13435 2.43966,-0.0536 l 0.3175,-0.10545 v -2.99146 -2.99146 h -1.27 -1.27 v -1.016 -1.016 h 2.83633 2.83634 v 4.81346 4.81347 l -0.5715,0.26313 c -1.10995,0.51103 -2.19544,0.69268 -4.08517,0.68364 -0.72178,-0.003 -1.55998,-0.0563 -1.86267,-0.11755 z m 10.07534,-7.15415 v -7.02733 h 1.60866 1.60867 v 7.02733 7.02733 h -1.60867 -1.60866 z m -64.121859,-1.99252 c -2.086021,-0.39367 -3.949935,-1.43915 -5.493546,-3.08136 l -0.739067,-0.78627 0.300473,-0.36669 c 0.286537,-0.34968 0.966995,-0.97061 1.495873,-1.36501 l 0.246089,-0.18352 0.691516,0.47257 c 3.147781,2.15112 7.184324,2.17386 10.348528,0.0583 l 0.80042,-0.53516 0.613284,0.48777 c 0.337306,0.26828 0.794226,0.68928 1.015377,0.93557 l 0.402093,0.44779 -0.271734,0.3431 c -0.888449,1.12175 -2.471129,2.33607 -3.789156,2.90725 -1.224806,0.53077 -2.154699,0.72472 -3.643629,0.75995 -0.921156,0.0218 -1.510313,-0.006 -1.976521,-0.0943 z m -7.022926,-5.14065 c -0.161345,-0.29104 -0.31751,-0.60833 -0.347033,-0.70509 -0.126738,-0.41536 2.428866,-4.57336 3.989738,-6.49134 0.660749,-0.81192 2.199246,-2.25657 2.759766,-2.59142 0.957779,-0.57218 1.457713,-0.72665 2.342976,-0.72391 0.624366,0.002 0.910157,0.0441 1.277297,0.1886 2.053805,0.8082 4.105758,3.02356 6.512036,7.03059 0.442383,0.73668 0.936799,1.58971 1.098705,1.89564 l 0.29437,0.55622 -0.23739,0.49666 c -0.13056,0.27317 -0.307183,0.58921 -0.392499,0.70231 l -0.155121,0.20565 -0.804075,-0.7687 c -2.016901,-1.92817 -4.329677,-2.91198 -7.16999,-3.04999 -1.786916,-0.0868 -3.654022,0.31874 -5.376333,1.16784 -0.988366,0.48725 -1.763457,1.04597 -2.718346,1.9595 -0.37749,0.36113 -0.707586,0.65661 -0.733547,0.65661 -0.02596,0 -0.17921,-0.23813 -0.340554,-0.52917 z m 72.377895,-2.27863 c -1.06858,-0.23972 -1.56326,-1.51004 -0.94932,-2.43778 0.46483,-0.7024 1.453,-0.90097 2.18223,-0.43851 0.48842,0.30975 0.70926,0.74038 0.70591,1.37648 -0.005,1.01178 -0.92905,1.72634 -1.93882,1.49981 z m 6.35535,-0.86735 c -0.4624,-0.1721 -0.90653,-0.55284 -1.15376,-0.98909 -0.26989,-0.47622 -0.29535,-1.39095 -0.0516,-1.85509 0.40637,-0.77393 1.00522,-1.13797 1.87194,-1.13797 0.65968,0 1.10007,0.17727 1.49316,0.60105 0.4022,0.43358 0.53437,0.78627 0.53437,1.42592 0,0.63964 -0.13217,0.99233 -0.53437,1.42592 -0.5016,0.54076 -1.48278,0.78121 -2.1597,0.52926 z m 1.46605,-0.38639 c 0.72473,-0.36973 1.09527,-1.16877 0.92053,-1.98502 -0.12525,-0.58506 -0.71929,-1.1791 -1.30404,-1.30404 -0.57734,-0.12335 -1.11497,0.005 -1.53863,0.3678 -0.9848,0.84295 -0.80232,2.33436 0.36063,2.94745 0.36563,0.19276 1.1584,0.17946 1.56151,-0.0262 z m -1.60385,-1.56879 v -1.22767 h 0.58125 c 0.75348,0 1.02742,0.18394 1.02742,0.68988 0,0.24998 -0.0527,0.38591 -0.20093,0.51791 l -0.20093,0.17897 0.32701,0.53429 0.32702,0.53428 -0.23192,-9.3e-4 c -0.19194,-7.7e-4 -0.28668,-0.0894 -0.5496,-0.51417 -0.41645,-0.6728 -0.60282,-0.66431 -0.63904,0.0291 -0.0236,0.45242 -0.0397,0.48601 -0.23284,0.48601 h -0.20744 z m 1.13983,-0.26293 c 0.0872,-0.0872 0.11562,-0.201 0.0793,-0.3175 -0.0745,-0.23882 -0.1878,-0.30571 -0.52063,-0.30728 -0.26987,-0.001 -0.27516,0.006 -0.27516,0.37971 0,0.37747 0.003,0.381 0.29028,0.381 0.15966,0 0.35145,-0.0612 0.42621,-0.13593 z"
       id="path1"
       inkscape:export-filename="osgi.png"
       inkscape:export-xdpi="96"
       inkscape:export-ydpi="96" /></g></svg>
